<?xml version="1.0" standalone="no"?>
<!DOCTYPE svg PUBLIC "-//W3C//DTD SVG 20010904//EN"
 "http://www.w3.org/TR/2001/REC-SVG-20010904/DTD/svg10.dtd">
<svg version="1.0" xmlns="http://www.w3.org/2000/svg"
 width="1040.000000pt" height="1040.000000pt" viewBox="0 0 1040.000000 1040.000000"
 preserveAspectRatio="xMidYMid meet">
<metadata>
Created by potrace 1.14, written by Peter Selinger 2001-2017
</metadata>
<g transform="translate(0.000000,1040.000000) scale(0.100000,-0.100000)"
fill="#000000" stroke="none">
<path d="M1223 6863 c2 -1946 6 -3560 10 -3588 4 -27 9 -77 12 -110 2 -33 7
-71 10 -84 2 -14 7 -47 11 -75 18 -147 69 -377 126 -568 11 -37 20 -71 20 -75
0 -5 3 -12 7 -18 5 -5 16 -37 26 -70 10 -33 23 -66 28 -72 5 -7 6 -13 1 -13
-5 0 -4 -4 1 -8 6 -4 16 -25 24 -47 26 -74 105 -240 197 -415 11 -19 22 -36
27 -38 4 -2 7 -8 7 -13 0 -12 52 -93 63 -97 4 -2 7 -8 7 -14 0 -17 149 -221
247 -337 65 -77 320 -331 333 -331 6 0 8 -5 5 -10 -3 -6 -2 -10 4 -10 6 0 50
-32 98 -71 102 -82 257 -189 272 -189 6 0 11 -4 11 -8 0 -5 12 -15 27 -23 15
-8 57 -32 93 -53 36 -22 130 -70 210 -108 179 -86 173 -83 240 -108 30 -11 64
-25 75 -30 11 -5 49 -18 85 -30 36 -12 72 -24 80 -27 8 -3 20 -7 25 -9 6 -1
59 -16 119 -34 108 -31 127 -36 176 -46 14 -3 34 -8 45 -11 11 -4 25 -7 30 -8
20 -2 113 -21 118 -25 1 -1 13 -3 27 -4 23 -3 52 -8 140 -22 42 -7 85 -13 125
-18 17 -2 50 -7 75 -10 288 -37 954 -43 1210 -11 19 2 62 6 95 9 33 3 71 8 85
11 14 3 42 6 63 7 21 1 40 5 43 10 3 4 10 6 15 2 5 -3 33 -1 62 5 60 12 98 19
147 27 19 3 71 14 115 24 44 11 91 21 105 24 14 2 25 5 25 6 0 2 20 7 60 15
51 11 355 107 410 130 17 7 62 25 100 40 39 16 104 44 145 63 41 19 80 36 86
37 6 2 24 11 39 21 15 10 34 19 42 20 8 2 22 9 31 17 10 8 27 18 40 21 12 4
22 12 22 17 0 5 9 9 19 9 11 0 21 3 23 8 2 4 15 14 30 22 47 26 173 103 178
109 3 3 25 20 50 36 25 16 47 32 50 35 3 3 22 16 42 30 21 14 38 29 38 33 0 4
8 11 19 15 46 18 293 246 424 393 83 93 91 102 142 169 28 36 53 67 56 70 26
23 233 357 276 445 11 22 24 49 31 60 28 49 139 305 144 333 2 9 6 19 9 22 8
7 99 292 99 311 0 8 5 20 12 27 7 7 9 12 5 12 -3 0 -2 12 4 26 5 15 12 43 15
63 3 20 8 43 11 51 8 19 10 28 17 70 4 19 9 42 11 50 2 8 7 33 10 55 3 23 8
52 10 65 10 48 26 153 30 194 7 66 15 139 22 192 3 27 8 1605 10 3507 l3 3457
-684 0 -684 0 -1 -3272 c0 -1800 -3 -3325 -7 -3388 -7 -134 -11 -185 -13 -185
-1 0 -4 -22 -6 -50 -4 -46 -14 -129 -20 -165 -1 -8 -6 -35 -10 -60 -10 -64
-13 -79 -19 -98 -3 -9 -8 -33 -11 -52 -13 -82 -84 -326 -118 -410 -6 -14 -11
-27 -12 -30 -28 -84 -163 -356 -193 -389 -8 -8 -18 -24 -23 -35 -9 -22 -54
-85 -129 -182 -68 -89 -244 -262 -347 -342 -51 -40 -97 -72 -102 -72 -5 0 -11
-4 -13 -8 -7 -18 -368 -220 -368 -206 0 2 -14 -3 -32 -12 -27 -14 -278 -106
-285 -105 -2 1 -4 1 -5 0 -2 0 -11 -2 -21 -4 -10 -2 -26 -7 -35 -11 -9 -3 -26
-8 -37 -10 -29 -5 -48 -9 -70 -17 -11 -3 -36 -8 -55 -11 -19 -3 -46 -8 -60
-11 -43 -9 -129 -23 -190 -30 -19 -2 -53 -7 -76 -10 -186 -24 -693 -24 -809 2
-11 2 -36 6 -55 8 -69 8 -106 14 -130 19 -14 3 -36 8 -50 10 -14 3 -47 10 -75
16 -27 6 -63 13 -80 16 -16 3 -38 10 -47 15 -10 5 -18 7 -18 5 0 -3 -19 2 -42
10 -24 9 -50 17 -58 19 -29 7 -116 39 -168 62 -29 12 -55 23 -57 23 -8 0 -149
69 -205 101 -69 39 -244 154 -264 174 -8 8 -17 15 -20 15 -15 0 -250 229 -297
290 -13 17 -39 48 -56 68 -18 20 -33 42 -33 49 0 6 -4 13 -8 15 -10 4 -72 96
-72 108 0 4 -4 10 -8 12 -24 10 -169 307 -216 443 -16 44 -32 89 -37 100 -13
30 -85 305 -94 360 -2 11 -6 39 -10 63 -4 24 -8 49 -9 55 -15 73 -23 131 -31
227 -8 88 -14 130 -21 142 -5 7 -2 8 6 3 8 -5 11 -4 6 3 -3 6 -9 52 -11 104
-3 51 -6 1563 -6 3361 l-1 3267 -684 0 -684 0 3 -3537z"/>
</g>
</svg>
